<svg width="14" height="14" viewBox="0 0 14 14" fill="none" xmlns="http://www.w3.org/2000/svg">
<path d="M7.00067 4.99992C5.89573 4.99992 5.00065 5.89532 5.00065 6.99992C5.00065 8.10478 5.89607 8.99992 7.00067 8.99992C8.10553 8.99992 9.00067 8.10452 9.00067 6.99992C9.00067 5.89505 8.10527 4.99992 7.00067 4.99992ZM7.00067 3.66658C8.84093 3.66658 10.334 5.15798 10.334 6.99992C10.334 8.84025 8.8426 10.3333 7.00067 10.3333C5.16034 10.3333 3.66732 8.84185 3.66732 6.99992C3.66732 5.15961 5.15872 3.66658 7.00067 3.66658ZM11.334 3.49935C11.334 3.95942 10.9601 4.3327 10.5007 4.3327C10.0406 4.3327 9.66733 3.95885 9.66733 3.49935C9.66733 3.03985 10.0411 2.66659 10.5007 2.66659C10.9595 2.66601 11.334 3.03985 11.334 3.49935ZM7.00067 1.66659C5.351 1.66659 5.08212 1.67095 4.31484 1.70512C3.7921 1.72966 3.44168 1.79997 3.1161 1.92637C2.82677 2.03858 2.61806 2.17257 2.39568 2.39495C2.17244 2.61819 2.03869 2.82634 1.92693 3.11581C1.80024 3.44213 1.72995 3.79199 1.70585 4.31402C1.67135 5.05005 1.66732 5.30728 1.66732 6.99992C1.66732 8.64958 1.67168 8.91845 1.70584 9.68565C1.7304 10.2082 1.8008 10.5591 1.92689 10.8839C2.0394 11.1737 2.17366 11.3829 2.39497 11.6042C2.61908 11.828 2.82786 11.9622 3.11458 12.0729C3.44412 12.2003 3.79432 12.2707 4.31474 12.2947C5.05078 12.3292 5.30802 12.3333 7.00067 12.3333C8.65033 12.3333 8.9192 12.3289 9.6864 12.2947C10.2078 12.2703 10.559 12.1997 10.8847 12.0737C11.1736 11.9615 11.3835 11.8267 11.6049 11.6056C11.8291 11.3811 11.963 11.1729 12.0738 10.8855C12.2009 10.5571 12.2714 10.2065 12.2955 9.68585C12.3299 8.94979 12.334 8.69252 12.334 6.99992C12.334 5.35027 12.3296 5.08139 12.2955 4.31417C12.2709 3.79263 12.2003 3.44091 12.0742 3.11537C11.9623 2.82684 11.8278 2.61749 11.6056 2.39495C11.382 2.17135 11.1744 2.03787 10.8847 1.9262C10.5587 1.79961 10.2083 1.72923 9.68653 1.70513C8.95053 1.67062 8.69326 1.66659 7.00067 1.66659ZM7.00067 0.333252C8.81173 0.333252 9.03786 0.339919 9.749 0.373252C10.4584 0.406032 10.9423 0.518252 11.3673 0.683252C11.8067 0.852699 12.1779 1.08159 12.5484 1.45214C12.9184 1.8227 13.1473 2.19492 13.3173 2.63325C13.4817 3.0577 13.594 3.54214 13.6273 4.25159C13.659 4.9627 13.6673 5.18881 13.6673 6.99992C13.6673 8.81105 13.6607 9.03712 13.6273 9.74825C13.5945 10.4577 13.4817 10.9416 13.3173 11.3666C13.1479 11.8061 12.9184 12.1771 12.5484 12.5477C12.1779 12.9177 11.8051 13.1466 11.3673 13.3166C10.9423 13.4811 10.4584 13.5933 9.749 13.6266C9.03786 13.6583 8.81173 13.6666 7.00067 13.6666C5.18954 13.6666 4.96342 13.6599 4.25232 13.6266C3.54287 13.5938 3.05954 13.4811 2.63398 13.3166C2.19509 13.1471 1.82342 12.9177 1.45287 12.5477C1.08232 12.1771 0.853984 11.8044 0.683984 11.3666C0.518984 10.9416 0.407318 10.4577 0.373984 9.74825C0.342318 9.03712 0.333984 8.81105 0.333984 6.99992C0.333984 5.18881 0.340651 4.9627 0.373984 4.25159C0.406758 3.54159 0.518984 3.05825 0.683984 2.63325C0.853424 2.19437 1.08232 1.8227 1.45287 1.45214C1.82342 1.08159 2.19565 0.853252 2.63398 0.683252C3.05898 0.518252 3.54232 0.406585 4.25232 0.373252C4.96342 0.341585 5.18954 0.333252 7.00067 0.333252Z" fill="#F50739"/>
</svg>
