<svg width="142" height="45" viewBox="0 0 142 45" fill="none" xmlns="http://www.w3.org/2000/svg">
<g clip-path="url(#clip0_69_78)">
<mask id="mask0_69_78" style="mask-type:luminance" maskUnits="userSpaceOnUse" x="-14" y="-59" width="169" height="163">
<path d="M154.5 -58.5H-13.5V103.5H154.5V-58.5Z" fill="white"/>
</mask>
<g mask="url(#mask0_69_78)">
<path d="M37.2393 29.5196V26.1697H37.828V29.5196H37.2393Z" fill="white"/>
<path d="M39.7651 29.5196L40.9475 27.8261L39.799 26.1697H40.5138L41.3086 27.3491L42.096 26.1697H42.8156L41.6671 27.8261L42.8447 29.5196H42.1299L41.3086 28.303L40.4847 29.5196H39.7651Z" fill="white"/>
<path d="M45.6761 29.5196V26.6954H44.6367V26.1697H47.2995V26.6954H46.2649V29.5196H45.6761Z" fill="white"/>
<path d="M49.2371 29.5196V26.1697H49.8258V29.5196H49.2371Z" fill="white"/>
<path d="M53.3451 29.5895C53.1513 29.5895 52.972 29.5648 52.8072 29.5151C52.6425 29.4655 52.4971 29.395 52.3711 29.3035C52.2468 29.2103 52.1443 29.0987 52.0634 28.9684C51.9826 28.8382 51.9285 28.6916 51.9011 28.5287L52.5069 28.4404C52.5585 28.6466 52.6579 28.8025 52.8049 28.9079C52.9535 29.0119 53.1457 29.0638 53.3815 29.0638C53.4865 29.0638 53.5825 29.0522 53.6698 29.029C53.7586 29.0041 53.8355 28.97 53.9 28.9265C53.9646 28.8832 54.0147 28.8319 54.0503 28.7731C54.0857 28.7125 54.1035 28.6466 54.1035 28.5752C54.1035 28.3954 53.9744 28.2689 53.7158 28.196L52.8145 27.9401C52.2961 27.7928 52.0368 27.5051 52.0368 27.0772C52.0368 26.9314 52.0674 26.7988 52.1289 26.6794C52.1919 26.56 52.2791 26.4575 52.3905 26.3723C52.502 26.287 52.6344 26.221 52.7879 26.1745C52.9429 26.128 53.1126 26.1047 53.2968 26.1047C53.4792 26.1047 53.6465 26.1265 53.7983 26.1698C53.9517 26.2133 54.0873 26.2769 54.2054 26.3606C54.3248 26.4443 54.425 26.5468 54.5057 26.6677C54.5882 26.7887 54.6487 26.9275 54.6874 27.0841L54.0599 27.1888C54.0227 27.0104 53.9364 26.8724 53.8006 26.7748C53.665 26.677 53.4937 26.6281 53.287 26.6281C53.1901 26.6281 53.102 26.639 53.0228 26.6608C52.9438 26.6809 52.8768 26.7103 52.8219 26.7491C52.7669 26.7863 52.724 26.8313 52.6934 26.884C52.6643 26.9353 52.6498 26.9918 52.6498 27.0539C52.6498 27.1484 52.6901 27.2276 52.771 27.2912C52.8517 27.3547 52.9818 27.4106 53.161 27.4586L53.7788 27.6238C54.0954 27.7076 54.3304 27.8246 54.484 27.9751C54.6373 28.1255 54.714 28.3156 54.714 28.5451C54.714 28.7002 54.6811 28.8421 54.6148 28.9708C54.5485 29.098 54.4557 29.2081 54.3362 29.3011C54.2166 29.3926 54.0721 29.464 53.9025 29.5151C53.7345 29.5648 53.5486 29.5895 53.3451 29.5895Z" fill="white"/>
<path d="M58.2163 29.5895C57.9547 29.5895 57.7204 29.5477 57.5137 29.464C57.3085 29.3787 57.1341 29.26 56.9902 29.108C56.8465 28.9544 56.7367 28.7707 56.6607 28.5566C56.5848 28.3426 56.5469 28.1055 56.5469 27.8449C56.5469 27.5844 56.5848 27.347 56.6607 27.133C56.7367 26.9189 56.8465 26.7359 56.9902 26.584C57.1341 26.4304 57.3085 26.3118 57.5137 26.2281C57.7204 26.1427 57.9547 26.1001 58.2163 26.1001C58.4779 26.1001 58.7122 26.1427 58.9189 26.2281C59.1257 26.3118 59.301 26.4304 59.4447 26.584C59.5885 26.7359 59.6983 26.9189 59.7742 27.133C59.8501 27.347 59.8881 27.5844 59.8881 27.8449C59.8881 28.1055 59.8501 28.3426 59.7742 28.5566C59.6983 28.7707 59.5885 28.9544 59.4447 29.108C59.301 29.26 59.1257 29.3787 58.9189 29.464C58.7122 29.5477 58.4779 29.5895 58.2163 29.5895ZM58.2163 29.0615C58.3924 29.0615 58.5458 29.0327 58.6766 28.9754C58.8091 28.9165 58.9189 28.8343 59.0062 28.7289C59.095 28.6219 59.1613 28.4939 59.2049 28.345C59.2484 28.1945 59.2702 28.0279 59.2702 27.8449C59.2702 27.6619 59.2484 27.4958 59.2049 27.347C59.1613 27.1966 59.095 27.0687 59.0062 26.9632C58.9189 26.8561 58.8091 26.7739 58.6766 26.7166C58.5458 26.6576 58.3924 26.6281 58.2163 26.6281C58.0402 26.6281 57.8868 26.6576 57.7559 26.7166C57.625 26.7739 57.516 26.8561 57.4289 26.9632C57.3416 27.0687 57.2753 27.1966 57.2301 27.347C57.1865 27.4958 57.1647 27.6619 57.1647 27.8449C57.1647 28.0279 57.1865 28.1945 57.2301 28.345C57.2738 28.4939 57.3391 28.6219 57.4264 28.7289C57.5137 28.8343 57.6227 28.9165 57.7535 28.9754C57.8859 29.0327 58.0402 29.0615 58.2163 29.0615Z" fill="white"/>
<path d="M63.1642 29.5895C62.9704 29.5895 62.7911 29.5648 62.6263 29.5151C62.4616 29.4655 62.3161 29.395 62.1901 29.3035C62.0659 29.2103 61.9632 29.0987 61.8825 28.9684C61.8017 28.8382 61.7476 28.6916 61.7202 28.5287L62.3259 28.4404C62.3776 28.6466 62.4768 28.8025 62.6238 28.9079C62.7725 29.0119 62.9647 29.0638 63.2005 29.0638C63.3055 29.0638 63.4016 29.0522 63.4889 29.029C63.5777 29.0041 63.6544 28.97 63.7191 28.9265C63.7837 28.8832 63.8337 28.8319 63.8692 28.7731C63.9048 28.7125 63.9226 28.6466 63.9226 28.5752C63.9226 28.3954 63.7933 28.2689 63.5349 28.196L62.6336 27.9401C62.115 27.7928 61.8559 27.5051 61.8559 27.0772C61.8559 26.9314 61.8865 26.7988 61.9479 26.6794C62.0109 26.56 62.0981 26.4575 62.2096 26.3723C62.321 26.287 62.4535 26.221 62.6069 26.1745C62.762 26.128 62.9317 26.1047 63.1157 26.1047C63.2983 26.1047 63.4654 26.1265 63.6174 26.1698C63.7707 26.2133 63.9064 26.2769 64.0243 26.3606C64.1439 26.4443 64.2441 26.5468 64.3248 26.6677C64.4071 26.7887 64.4678 26.9275 64.5065 27.0841L63.879 27.1888C63.8418 27.0104 63.7553 26.8724 63.6197 26.7748C63.4841 26.677 63.3128 26.6281 63.1061 26.6281C63.0091 26.6281 62.9211 26.639 62.8419 26.6608C62.7627 26.6809 62.6957 26.7103 62.6408 26.7491C62.5859 26.7863 62.5431 26.8313 62.5125 26.884C62.4834 26.9353 62.4689 26.9918 62.4689 27.0539C62.4689 27.1484 62.5092 27.2276 62.5899 27.2912C62.6708 27.3547 62.8007 27.4106 62.9801 27.4586L63.5979 27.6238C63.9145 27.7076 64.1495 27.8246 64.3031 27.9751C64.4564 28.1255 64.5331 28.3156 64.5331 28.5451C64.5331 28.7002 64.5 28.8421 64.4339 28.9708C64.3676 29.098 64.2747 29.2081 64.1551 29.3011C64.0357 29.3926 63.8911 29.464 63.7214 29.5151C63.5534 29.5648 63.3677 29.5895 63.1642 29.5895Z" fill="white"/>
<path d="M66.6082 29.5196V26.1697H67.1946V28.9939H68.7355V29.5196H66.6082Z" fill="white"/>
<path d="M73.4806 29.5196H72.8651L72.6181 28.7938H71.2564L71.0092 29.5196H70.3938L71.5496 26.1697H72.3272L73.4806 29.5196ZM72.4412 28.2704L71.9372 26.7839L71.4332 28.2704H72.4412Z" fill="white"/>
<path d="M76.6005 29.5895C76.4067 29.5895 76.2275 29.5648 76.0628 29.5151C75.8979 29.4655 75.7526 29.395 75.6266 29.3035C75.5021 29.2103 75.3996 29.0987 75.3189 28.9684C75.238 28.8382 75.184 28.6916 75.1565 28.5287L75.7622 28.4404C75.8139 28.6466 75.9133 28.8025 76.0603 28.9079C76.2088 29.0119 76.4011 29.0638 76.6369 29.0638C76.7419 29.0638 76.8381 29.0522 76.9253 29.029C77.0141 29.0041 77.0908 28.97 77.1554 28.9265C77.2201 28.8832 77.2702 28.8319 77.3056 28.7731C77.3411 28.7125 77.359 28.6466 77.359 28.5752C77.359 28.3954 77.2297 28.2689 76.9714 28.196L76.0699 27.9401C75.5515 27.7928 75.2921 27.5051 75.2921 27.0772C75.2921 26.9314 75.3229 26.7988 75.3842 26.6794C75.4472 26.56 75.5345 26.4575 75.6459 26.3723C75.7574 26.287 75.8898 26.221 76.0433 26.1745C76.1984 26.128 76.368 26.1047 76.5521 26.1047C76.7346 26.1047 76.9018 26.1265 77.0536 26.1698C77.2072 26.2133 77.3428 26.2769 77.4607 26.3606C77.5802 26.4443 77.6804 26.5468 77.7611 26.6677C77.8436 26.7887 77.9041 26.9275 77.943 27.0841L77.3153 27.1888C77.2783 27.0104 77.1918 26.8724 77.0561 26.7748C76.9203 26.677 76.7492 26.6281 76.5425 26.6281C76.4456 26.6281 76.3575 26.639 76.2784 26.6608C76.1992 26.6809 76.1321 26.7103 76.0772 26.7491C76.0223 26.7863 75.9795 26.8313 75.9487 26.884C75.9198 26.9353 75.9052 26.9918 75.9052 27.0539C75.9052 27.1484 75.9456 27.2276 76.0264 27.2912C76.1071 27.3547 76.2371 27.4106 76.4165 27.4586L77.0342 27.6238C77.3509 27.7076 77.586 27.8246 77.7393 27.9751C77.8929 28.1255 77.9696 28.3156 77.9696 28.5451C77.9696 28.7002 77.9364 28.8421 77.8702 28.9708C77.8041 29.098 77.711 29.2081 77.5916 29.3011C77.4721 29.3926 77.3274 29.464 77.1579 29.5151C76.9899 29.5648 76.8041 29.5895 76.6005 29.5895Z" fill="white"/>
<path d="M79.9961 29.5196V26.1697H80.5825V27.5795H82.2325V26.1697H82.819V29.5196H82.2325V28.1053H80.5825V29.5196H79.9961Z" fill="white"/>
<path d="M85.7491 29.5196V26.6954H84.7097V26.1697H87.3725V26.6954H86.3379V29.5196H85.7491Z" fill="white"/>
<path d="M89.3101 29.5196V26.1697H89.8988V29.5196H89.3101Z" fill="white"/>
<path d="M93.3332 28.3495H92.7155V29.5196H92.1267V26.1697H93.5052C93.7121 26.1697 93.8921 26.1946 94.0456 26.2442C94.2007 26.2937 94.3291 26.3659 94.4308 26.4605C94.5342 26.5535 94.6117 26.6675 94.6635 26.8025C94.7152 26.9374 94.741 27.0902 94.741 27.2608C94.741 27.5306 94.6772 27.7547 94.5496 27.9331C94.4219 28.1099 94.2298 28.2308 93.973 28.2959L94.7967 29.5196H94.1208L93.3332 28.3495ZM92.7155 27.8261H93.5004C93.712 27.8261 93.8736 27.778 93.985 27.6818C94.0965 27.5842 94.1522 27.4438 94.1522 27.2608C94.1522 27.0778 94.0965 26.9381 93.985 26.842C93.8736 26.7443 93.712 26.6954 93.5004 26.6954H92.7155V27.8261Z" fill="white"/>
<path d="M96.8811 29.5196V26.1697H97.4699V29.5196H96.8811Z" fill="white"/>
<path d="M99.7461 29.5196V26.1697H100.333V28.9939H101.873V29.5196H99.7461Z" fill="white"/>
<path d="M106.148 29.0777C106.11 29.1569 106.055 29.2282 105.986 29.2918C105.918 29.3554 105.839 29.4097 105.749 29.4547C105.658 29.498 105.558 29.5313 105.448 29.5547C105.338 29.578 105.223 29.5895 105.102 29.5895C104.861 29.5895 104.642 29.5501 104.445 29.4709C104.248 29.3918 104.079 29.2779 103.939 29.1289C103.8 28.9801 103.691 28.7978 103.614 28.5823C103.538 28.3651 103.5 28.1194 103.5 27.8449C103.5 27.5827 103.54 27.3446 103.619 27.1306C103.7 26.9167 103.812 26.7337 103.956 26.5816C104.099 26.4282 104.272 26.3095 104.474 26.2256C104.678 26.1419 104.901 26.1001 105.145 26.1001C105.546 26.1001 105.874 26.1908 106.129 26.3723C106.384 26.5537 106.568 26.8274 106.679 27.1934L106.083 27.2842C106.026 27.0764 105.917 26.9158 105.756 26.8027C105.596 26.688 105.398 26.6305 105.162 26.6305C104.999 26.6305 104.853 26.6576 104.724 26.7119C104.594 26.7662 104.485 26.8461 104.394 26.9515C104.305 27.0555 104.237 27.1826 104.188 27.3331C104.141 27.4835 104.118 27.6556 104.118 27.8496C104.118 28.0402 104.14 28.2109 104.183 28.3613C104.229 28.5116 104.295 28.6388 104.382 28.7428C104.471 28.8467 104.58 28.9258 104.709 28.9801C104.838 29.0344 104.988 29.0615 105.157 29.0615C105.291 29.0615 105.415 29.0437 105.528 29.008C105.641 28.9708 105.739 28.9165 105.821 28.8451C105.904 28.7722 105.969 28.6823 106.018 28.5752C106.068 28.4683 106.096 28.3443 106.102 28.2031H104.951V27.6773H106.737V29.5198H106.148V29.0777Z" fill="white"/>
<path d="M111.509 29.5196H110.894L110.647 28.7938H109.285L109.038 29.5196H108.422L109.578 26.1697H110.356L111.509 29.5196ZM110.47 28.2704L109.966 26.7839L109.462 28.2704H110.47Z" fill="white"/>
<path d="M113.432 29.5196V26.1697H114.019L115.645 28.5518V26.1697H116.233V29.5196H115.645L114.019 27.1375V29.5196H113.432Z" fill="white"/>
<path d="M37.2896 35.1803V31.8303H37.8758L39.0025 34.0845L40.1292 31.8303H40.7155V35.1803H40.1292V32.9562L39.2497 34.7196H38.7554L37.8783 32.9562V35.1803H37.2896Z" fill="white"/>
<path d="M45.7245 35.1803H45.1092L44.862 34.4544H43.5004L43.2532 35.1803H42.6377L43.7935 31.8303H44.5712L45.7245 35.1803ZM44.6851 33.9311L44.1811 32.4444L43.6773 33.9311H44.6851Z" fill="white"/>
<path d="M47.6479 31.8303H48.2367V33.389L49.6299 31.8303H50.347L48.8473 33.4727L50.4487 35.1803H49.7074L48.2367 33.6146V35.1803H47.6479V31.8303Z" fill="white"/>
<path d="M53.0411 35.1803V32.3561H52.0017V31.8303H54.6645V32.3561H53.6299V35.1803H53.0411Z" fill="white"/>
<path d="M59.2887 35.1803H58.6734L58.4262 34.4544H57.0646L56.8174 35.1803H56.2019L57.3577 31.8303H58.1355L59.2887 35.1803ZM58.2493 33.9311L57.7453 32.4444L57.2415 33.9311H58.2493Z" fill="white"/>
<path d="M62.5569 35.1803H61.2122V31.8303H62.5207C62.6822 31.8303 62.8332 31.8489 62.9737 31.8861C63.1158 31.9218 63.2386 31.9761 63.342 32.049C63.447 32.1219 63.5293 32.2134 63.5892 32.3235C63.6489 32.4336 63.6788 32.5623 63.6788 32.7096C63.6788 32.8182 63.6634 32.9144 63.6328 32.9981C63.6021 33.0803 63.5624 33.1517 63.5141 33.2121C63.4655 33.2727 63.4114 33.3215 63.3517 33.3587C63.2919 33.3959 63.2338 33.423 63.1773 33.4401C63.2467 33.4526 63.3178 33.4781 63.3904 33.5169C63.4632 33.5556 63.5293 33.6092 63.5892 33.6774C63.6489 33.7442 63.6973 33.8247 63.7345 33.9194C63.7732 34.014 63.7927 34.1234 63.7927 34.2474C63.7927 34.4102 63.7603 34.5506 63.6958 34.6685C63.6312 34.7864 63.5422 34.8833 63.4293 34.9592C63.3178 35.0352 63.1869 35.091 63.0367 35.1267C62.8866 35.1624 62.7267 35.1803 62.5569 35.1803ZM62.5327 32.3561H61.7986V33.1959H62.5569C62.6313 33.1959 62.7007 33.1889 62.7654 33.1749C62.8299 33.161 62.8856 33.1377 62.9325 33.1052C62.981 33.071 63.0189 33.0269 63.0465 32.9726C63.0739 32.9183 63.0875 32.8515 63.0875 32.7725C63.0875 32.6934 63.0731 32.6274 63.044 32.5748C63.0164 32.5205 62.9777 32.4771 62.9276 32.4444C62.8792 32.4119 62.8211 32.3894 62.7532 32.3771C62.6854 32.3631 62.6118 32.3561 62.5327 32.3561ZM62.5569 34.6545C62.6427 34.6545 62.7242 34.6482 62.8016 34.6359C62.8792 34.6235 62.9479 34.6002 63.0076 34.566C63.069 34.5305 63.1174 34.4823 63.153 34.4219C63.1885 34.3598 63.2064 34.28 63.2064 34.1822C63.2064 34.086 63.1885 34.0077 63.153 33.9473C63.1174 33.8868 63.0698 33.8396 63.0101 33.8054C62.9519 33.7697 62.8848 33.7457 62.8089 33.7332C62.733 33.7193 62.6556 33.7124 62.5764 33.7124H61.7986V34.6545H62.5569Z" fill="white"/>
<path d="M65.8293 35.1803V31.8303H66.4181V35.1803H65.8293Z" fill="white"/>
<path d="M45.3282 22.4091H43.1548V18.0533H39.0735V22.4091H36.8999V11.6406H39.0735V16.193H43.1548V11.6406H45.3282V22.4091Z" fill="white"/>
<path d="M56.2052 22.4091H53.9378L53.3123 20.5488H49.5751L48.9651 22.4091H46.6978L50.2631 12.5481C50.4194 12.2052 50.5915 11.9684 50.7791 11.8373C50.9771 11.7062 51.217 11.6406 51.4984 11.6406C51.7799 11.6406 52.0039 11.7011 52.1708 11.8221C52.348 11.9432 52.5043 12.1851 52.6398 12.5481L56.2052 22.4091ZM52.8119 18.7793L51.4984 14.5142L50.1223 18.7793H52.8119Z" fill="white"/>
<path d="M65.9577 15.9813L63.9561 20.0649C63.6643 20.6093 63.2994 20.8815 62.8615 20.8815C62.4342 20.8815 62.0745 20.5943 61.7825 20.0195L59.7497 15.9813V22.4091H57.5762V11.6406H59.7185L62.8615 17.8568L65.9889 11.6406H68.1312V22.4091H65.9577V15.9813Z" fill="white"/>
<path d="M78.8355 22.4091H76.318L74.1445 18.4163H72.5808V22.4091H70.4072V13.9547C70.4072 13.148 70.6001 12.5633 70.9857 12.2003C71.3715 11.8272 72.0179 11.6406 72.9247 11.6406H74.7699C75.875 11.6406 76.7506 11.9684 77.397 12.6237C78.0537 13.269 78.3821 14.0907 78.3821 15.089C78.3821 15.815 78.1841 16.4451 77.7879 16.9796C77.4023 17.5038 76.9227 17.8668 76.3493 18.0684L78.8355 22.4091ZM74.6292 16.6619C75.0879 16.6619 75.4633 16.5107 75.7551 16.2081C76.0575 15.8955 76.2085 15.5124 76.2085 15.0587C76.2085 14.5949 76.0626 14.2218 75.7708 13.9395C75.4892 13.6572 75.1087 13.5161 74.6292 13.5161H73.5502C72.9039 13.5161 72.5808 13.8336 72.5808 14.4689V16.6619H74.6292Z" fill="white"/>
<path d="M89.0824 22.4091H86.8151L86.1896 20.5488H82.4523L81.8426 22.4091H79.5752L83.1404 12.5481C83.2969 12.2052 83.4688 11.9684 83.6565 11.8373C83.8545 11.7062 84.0942 11.6406 84.3758 11.6406C84.6572 11.6406 84.8813 11.7011 85.0481 11.8221C85.2254 11.9432 85.3818 12.1851 85.5173 12.5481L89.0824 22.4091ZM85.6893 18.7793L84.3758 14.5142L82.9998 18.7793H85.6893Z" fill="white"/>
<path d="M95.6298 16.7073L99.461 22.4091H96.9278L94.3008 18.3407L92.7839 20.3069V22.4091H90.6104V11.6406H92.7839V17.6601L96.9903 11.6406H99.1794L95.6298 16.7073Z" fill="white"/>
<path d="M109.188 11.6406V18.7188C109.188 19.8884 108.776 20.811 107.952 21.4865C107.139 22.1621 106.133 22.4999 104.934 22.4999C103.735 22.4999 102.724 22.1621 101.901 21.4865C101.088 20.811 100.681 19.8884 100.681 18.7188V11.6406H102.855V18.6432C102.855 19.3086 103.042 19.8077 103.418 20.1405C103.803 20.4632 104.309 20.6244 104.934 20.6244C105.56 20.6244 106.065 20.4632 106.451 20.1405C106.837 19.8077 107.03 19.3086 107.03 18.6432V11.6406H109.188Z" fill="white"/>
<path d="M118.319 22.4091H115.004C113.753 22.4091 112.846 22.1772 112.283 21.7134C111.731 21.2396 111.455 20.4732 111.455 19.4145V11.6406H113.628V19.4145C113.628 19.838 113.727 20.1305 113.925 20.2917C114.123 20.4531 114.483 20.5337 115.004 20.5337H118.319V22.4091Z" fill="white"/>
<path d="M128.214 16.526V17.3426C128.214 19.1475 127.86 20.4583 127.151 21.275C126.453 22.0918 125.327 22.5 123.773 22.5C122.22 22.5 121.094 22.0918 120.396 21.275C119.708 20.4583 119.364 19.1324 119.364 17.2973V16.5108C119.364 14.837 119.713 13.5918 120.411 12.7751C121.12 11.9583 122.236 11.55 123.758 11.55C125.29 11.55 126.416 11.9634 127.135 12.7902C127.855 13.617 128.214 14.8622 128.214 16.526ZM126.041 17.2973V16.7377C126.041 15.7697 125.916 14.9984 125.665 14.4236C125.374 13.7582 124.748 13.4255 123.789 13.4255C122.82 13.4255 122.189 13.7582 121.897 14.4236C121.657 14.9681 121.537 15.7396 121.537 16.7377V17.2973C121.537 18.5979 121.725 19.4752 122.1 19.9289C122.246 20.1205 122.46 20.2868 122.741 20.4279C123.033 20.559 123.377 20.6246 123.773 20.6246C124.18 20.6246 124.524 20.559 124.805 20.4279C125.087 20.297 125.306 20.1356 125.462 19.9441C125.619 19.7525 125.738 19.5003 125.822 19.1879C125.968 18.6938 126.041 18.0636 126.041 17.2973Z" fill="white"/>
<path d="M137.856 11.6406L134.353 21.8042C134.165 22.268 133.832 22.4999 133.352 22.4999C132.852 22.4999 132.508 22.268 132.32 21.8042L128.864 11.6406H131.116L133.352 18.6584L135.588 11.6406H137.856Z" fill="white"/>
<path fill-rule="evenodd" clip-rule="evenodd" d="M30.1583 11.4922H6.72217V34.8376L18.4402 40.4873L30.1583 34.8376V11.4922ZM15.4552 15.01H10.3701V32.1725L15.4552 29.5075V26.3096L13.9076 24.9238H15.4552H18.2191H18.5505H21.3142H22.862L21.3142 26.3096V29.5076L26.3995 32.1725V15.01H21.3142V20.0201H18.5505H18.2191H15.4552V15.01Z" fill="#296DFB"/>
<path d="M18.551 31.8525L19.1714 33.6941H21.1795L19.555 34.8321L20.1755 36.6735L18.551 35.5355L16.9266 36.6735L17.5471 34.8321L15.9226 33.6941H17.9305L18.551 31.8525Z" fill="#E1A228"/>
<path d="M23.028 5.97471C21.7014 4.43961 19.4168 4.26906 18.4402 4.37571V8.79951C18.7166 8.33766 19.8221 7.56306 22.0331 8.15991C24.244 8.75691 26.2707 8.12436 27.0077 7.73361C26.2338 7.78686 24.3546 7.50966 23.028 5.97471Z" fill="white"/>
</g>
</g>
<defs>
<clipPath id="clip0_69_78">
<rect width="142" height="45" fill="white"/>
</clipPath>
</defs>
</svg>
