<svg width="202" height="64" viewBox="0 0 202 64" fill="none" xmlns="http://www.w3.org/2000/svg">
<g clip-path="url(#clip0_20_165)">
<mask id="mask0_20_165" style="mask-type:luminance" maskUnits="userSpaceOnUse" x="-20" y="-84" width="240" height="232">
<path d="M219.782 -83.2H-19.2042V147.2H219.782V-83.2Z" fill="white"/>
</mask>
<g mask="url(#mask0_20_165)">
<path d="M52.9741 41.9836V37.2192H53.8117V41.9836H52.9741Z" fill="#1E164B"/>
<path d="M56.5674 41.9836L58.2494 39.5751L56.6156 37.2192H57.6324L58.763 38.8967L59.8831 37.2192H60.9067L59.273 39.5751L60.9481 41.9836H59.9313L58.763 40.2533L57.591 41.9836H56.5674Z" fill="#1E164B"/>
<path d="M64.9759 41.9836V37.967H63.4973V37.2192H67.2852V37.967H65.8135V41.9836H64.9759Z" fill="#1E164B"/>
<path d="M70.0415 41.9836V37.2192H70.8791V41.9836H70.0415Z" fill="#1E164B"/>
<path d="M75.8855 42.0829C75.6098 42.0829 75.3546 42.0477 75.1203 41.9771C74.8859 41.9064 74.679 41.8062 74.4998 41.676C74.323 41.5436 74.1772 41.3848 74.0621 41.1995C73.9473 41.0143 73.8702 40.8058 73.8313 40.5742L74.693 40.4485C74.7664 40.7419 74.9078 40.9635 75.117 41.1135C75.3283 41.2613 75.6018 41.3351 75.9373 41.3351C76.0866 41.3351 76.2231 41.3187 76.3473 41.2856C76.4736 41.2502 76.583 41.2018 76.6748 41.1399C76.7666 41.0783 76.8379 41.0053 76.8886 40.9217C76.939 40.8355 76.9642 40.7418 76.9642 40.6403C76.9642 40.3845 76.7806 40.2047 76.4128 40.101L75.1307 39.7371C74.3931 39.5276 74.0243 39.1184 74.0243 38.5097C74.0243 38.3024 74.0678 38.1138 74.1553 37.944C74.2449 37.7742 74.369 37.6285 74.5275 37.5073C74.6861 37.3859 74.8744 37.292 75.0928 37.2259C75.3132 37.1598 75.5546 37.1267 75.8166 37.1267C76.0762 37.1267 76.3141 37.1576 76.5301 37.2193C76.7483 37.2812 76.9412 37.3716 77.1092 37.4907C77.2791 37.6097 77.4216 37.7554 77.5365 37.9273C77.6537 38.0995 77.7398 38.2968 77.7949 38.5196L76.9023 38.6685C76.8494 38.4148 76.7266 38.2185 76.5334 38.0797C76.3404 37.9406 76.0968 37.871 75.8027 37.871C75.6649 37.871 75.5396 37.8866 75.427 37.9175C75.3146 37.9461 75.2192 37.9879 75.1411 38.0432C75.063 38.0961 75.0019 38.1601 74.9583 38.235C74.9169 38.3079 74.8963 38.3884 74.8963 38.4767C74.8963 38.6111 74.9536 38.7237 75.0687 38.8142C75.1836 38.9044 75.3686 38.984 75.6235 39.0523L76.5024 39.2871C76.9527 39.4064 77.2871 39.5728 77.5055 39.7868C77.7237 40.0007 77.8328 40.271 77.8328 40.5974C77.8328 40.818 77.7859 41.0198 77.6916 41.2029C77.5973 41.3838 77.4652 41.5404 77.2953 41.6726C77.1251 41.8028 76.9195 41.9043 76.6783 41.9771C76.4393 42.0477 76.1749 42.0829 75.8855 42.0829Z" fill="#1E164B"/>
<path d="M82.8148 42.0829C82.4426 42.0829 82.1093 42.0234 81.8152 41.9043C81.5233 41.7829 81.2753 41.6142 81.0706 41.3981C80.8661 41.1796 80.7099 40.9183 80.6019 40.6139C80.4939 40.3095 80.4399 39.9722 80.4399 39.6016C80.4399 39.2311 80.4939 38.8936 80.6019 38.5891C80.7099 38.2847 80.8661 38.0244 81.0706 37.8083C81.2753 37.5899 81.5233 37.4211 81.8152 37.3021C82.1093 37.1807 82.4426 37.1201 82.8148 37.1201C83.187 37.1201 83.5202 37.1807 83.8143 37.3021C84.1084 37.4211 84.3578 37.5899 84.5622 37.8083C84.7667 38.0244 84.9229 38.2847 85.0309 38.5891C85.1389 38.8936 85.1929 39.2311 85.1929 39.6016C85.1929 39.9722 85.1389 40.3095 85.0309 40.6139C84.9229 40.9183 84.7667 41.1796 84.5622 41.3981C84.3578 41.6142 84.1084 41.7829 83.8143 41.9043C83.5202 42.0234 83.187 42.0829 82.8148 42.0829ZM82.8148 41.332C83.0652 41.332 83.2834 41.291 83.4695 41.2095C83.6581 41.1257 83.8143 41.0088 83.9384 40.8588C84.0648 40.7067 84.1591 40.5247 84.221 40.3129C84.283 40.0989 84.3139 39.8619 84.3139 39.6016C84.3139 39.3413 84.283 39.1052 84.221 38.8936C84.1591 38.6796 84.0648 38.4976 83.9384 38.3476C83.8143 38.1953 83.6581 38.0784 83.4695 37.9969C83.2834 37.9131 83.0652 37.8711 82.8148 37.8711C82.5643 37.8711 82.3461 37.9131 82.1598 37.9969C81.9737 38.0784 81.8185 38.1953 81.6946 38.3476C81.5705 38.4976 81.4762 38.6796 81.4118 38.8936C81.3499 39.1052 81.3189 39.3413 81.3189 39.6016C81.3189 39.8619 81.3499 40.0989 81.4118 40.3129C81.474 40.5247 81.5669 40.7067 81.6911 40.8588C81.8152 41.0088 81.9703 41.1257 82.1564 41.2095C82.3447 41.291 82.5643 41.332 82.8148 41.332Z" fill="#1E164B"/>
<path d="M89.8532 42.0829C89.5775 42.0829 89.3224 42.0477 89.088 41.9771C88.8537 41.9064 88.6468 41.8062 88.4676 41.676C88.2908 41.5436 88.1447 41.3848 88.0299 41.1995C87.915 41.0143 87.838 40.8058 87.7991 40.5742L88.6607 40.4485C88.7342 40.7419 88.8754 40.9635 89.0845 41.1135C89.2961 41.2613 89.5693 41.3351 89.9048 41.3351C90.0542 41.3351 90.1909 41.3187 90.3151 41.2856C90.4414 41.2502 90.5505 41.2018 90.6426 41.1399C90.7344 41.0783 90.8056 41.0053 90.8561 40.9217C90.9068 40.8355 90.932 40.7418 90.932 40.6403C90.932 40.3845 90.7481 40.2047 90.3806 40.101L89.0984 39.7371C88.3607 39.5276 87.992 39.1184 87.992 38.5097C87.992 38.3024 88.0356 38.1138 88.123 37.944C88.2126 37.7742 88.3366 37.6285 88.4952 37.5073C88.6537 37.3859 88.8422 37.292 89.0604 37.2259C89.281 37.1598 89.5224 37.1267 89.7842 37.1267C90.044 37.1267 90.2816 37.1576 90.4978 37.2193C90.716 37.2812 90.909 37.3716 91.0767 37.4907C91.2469 37.6097 91.3894 37.7554 91.5042 37.9273C91.6213 38.0995 91.7076 38.2968 91.7627 38.5196L90.87 38.6685C90.8172 38.4148 90.6941 38.2185 90.5012 38.0797C90.3082 37.9406 90.0646 37.871 89.7705 37.871C89.6326 37.871 89.5074 37.8866 89.3947 37.9175C89.2821 37.9461 89.1867 37.9879 89.1086 38.0432C89.0305 38.0961 88.9697 38.1601 88.9261 38.235C88.8847 38.3079 88.8641 38.3884 88.8641 38.4767C88.8641 38.6111 88.9214 38.7237 89.0363 38.8142C89.1513 38.9044 89.3361 38.984 89.5912 39.0523L90.4702 39.2871C90.9205 39.4064 91.2548 39.5728 91.4733 39.7868C91.6914 40.0007 91.8005 40.271 91.8005 40.5974C91.8005 40.818 91.7534 41.0198 91.6594 41.2029C91.5651 41.3838 91.433 41.5404 91.2628 41.6726C91.0929 41.8028 90.8873 41.9043 90.6459 41.9771C90.4069 42.0477 90.1427 42.0829 89.8532 42.0829Z" fill="#1E164B"/>
<path d="M94.7524 41.9836V37.2192H95.5867V41.2359H97.7787V41.9836H94.7524Z" fill="#1E164B"/>
<path d="M104.529 41.9836H103.653L103.302 40.9513H101.365L101.013 41.9836H100.138L101.782 37.2192H102.888L104.529 41.9836ZM103.05 40.207L102.333 38.0928L101.616 40.207H103.05Z" fill="#1E164B"/>
<path d="M108.967 42.0829C108.691 42.0829 108.436 42.0477 108.202 41.9771C107.967 41.9064 107.761 41.8062 107.582 41.676C107.405 41.5436 107.259 41.3848 107.144 41.1995C107.029 41.0143 106.952 40.8058 106.913 40.5742L107.775 40.4485C107.848 40.7419 107.989 40.9635 108.198 41.1135C108.41 41.2613 108.683 41.3351 109.019 41.3351C109.168 41.3351 109.305 41.3187 109.429 41.2856C109.555 41.2502 109.664 41.2018 109.756 41.1399C109.848 41.0783 109.92 41.0053 109.97 40.9217C110.021 40.8355 110.046 40.7418 110.046 40.6403C110.046 40.3845 109.862 40.2047 109.495 40.101L108.212 39.7371C107.475 39.5276 107.106 39.1184 107.106 38.5097C107.106 38.3024 107.15 38.1138 107.237 37.944C107.326 37.7742 107.451 37.6285 107.609 37.5073C107.768 37.3859 107.956 37.292 108.174 37.2259C108.395 37.1598 108.636 37.1267 108.898 37.1267C109.158 37.1267 109.396 37.1576 109.612 37.2193C109.83 37.2812 110.023 37.3716 110.191 37.4907C110.361 37.6097 110.503 37.7554 110.618 37.9273C110.735 38.0995 110.821 38.2968 110.877 38.5196L109.984 38.6685C109.931 38.4148 109.808 38.2185 109.615 38.0797C109.422 37.9406 109.179 37.871 108.884 37.871C108.747 37.871 108.621 37.8866 108.509 37.9175C108.396 37.9461 108.301 37.9879 108.223 38.0432C108.145 38.0961 108.084 38.1601 108.04 38.235C107.999 38.3079 107.978 38.3884 107.978 38.4767C107.978 38.6111 108.035 38.7237 108.15 38.8142C108.265 38.9044 108.45 38.984 108.705 39.0523L109.584 39.2871C110.034 39.4064 110.369 39.5728 110.587 39.7868C110.805 40.0007 110.915 40.271 110.915 40.5974C110.915 40.818 110.867 41.0198 110.773 41.2029C110.679 41.3838 110.547 41.5404 110.377 41.6726C110.207 41.8028 110.001 41.9043 109.76 41.9771C109.521 42.0477 109.257 42.0829 108.967 42.0829Z" fill="#1E164B"/>
<path d="M113.797 41.9836V37.2192H114.632V39.2244H116.979V37.2192H117.813V41.9836H116.979V39.9721H114.632V41.9836H113.797Z" fill="#1E164B"/>
<path d="M121.981 41.9836V37.967H120.502V37.2192H124.29V37.967H122.819V41.9836H121.981Z" fill="#1E164B"/>
<path d="M127.047 41.9836V37.2192H127.884V41.9836H127.047Z" fill="#1E164B"/>
<path d="M132.77 40.3194H131.891V41.9836H131.053V37.2192H133.014C133.309 37.2192 133.565 37.2546 133.783 37.3253C134.004 37.3957 134.186 37.4983 134.331 37.6329C134.478 37.7652 134.588 37.9273 134.662 38.1193C134.736 38.3111 134.772 38.5285 134.772 38.771C134.772 39.1548 134.682 39.4735 134.5 39.7272C134.318 39.9787 134.045 40.1506 133.68 40.2432L134.852 41.9836H133.89L132.77 40.3194ZM131.891 39.5751H133.008C133.309 39.5751 133.538 39.5066 133.697 39.3699C133.856 39.231 133.935 39.0313 133.935 38.771C133.935 38.5108 133.856 38.3121 133.697 38.1754C133.538 38.0365 133.309 37.967 133.008 37.967H131.891V39.5751Z" fill="#1E164B"/>
<path d="M137.817 41.9836V37.2192H138.654V41.9836H137.817Z" fill="#1E164B"/>
<path d="M141.892 41.9836V37.2192H142.727V41.2359H144.919V41.9836H141.892Z" fill="#1E164B"/>
<path d="M151 41.355C150.945 41.4676 150.868 41.569 150.769 41.6594C150.672 41.7499 150.56 41.8271 150.431 41.8911C150.302 41.9528 150.16 42.0001 150.004 42.0334C149.847 42.0665 149.683 42.0829 149.511 42.0829C149.168 42.0829 148.857 42.0268 148.577 41.9141C148.296 41.8017 148.056 41.6396 147.856 41.4277C147.659 41.2161 147.505 40.9569 147.394 40.6504C147.286 40.3414 147.232 39.992 147.232 39.6016C147.232 39.2287 147.289 38.8901 147.401 38.5857C147.516 38.2815 147.676 38.0212 147.881 37.8049C148.085 37.5867 148.331 37.4179 148.618 37.2987C148.908 37.1796 149.226 37.1201 149.573 37.1201C150.143 37.1201 150.609 37.2492 150.972 37.5073C151.335 37.7652 151.596 38.1546 151.755 38.6751L150.907 38.8042C150.826 38.5087 150.671 38.2802 150.441 38.1194C150.214 37.9562 149.933 37.8745 149.597 37.8745C149.365 37.8745 149.157 37.9131 148.973 37.9903C148.789 38.0675 148.633 38.181 148.504 38.331C148.378 38.4788 148.28 38.6597 148.211 38.8737C148.145 39.0877 148.111 39.3324 148.111 39.6082C148.111 39.8794 148.142 40.1221 148.205 40.3361C148.269 40.5499 148.363 40.7308 148.487 40.8786C148.613 41.0265 148.769 41.1389 148.952 41.2161C149.136 41.2933 149.349 41.332 149.59 41.332C149.781 41.332 149.957 41.3066 150.118 41.2558C150.278 41.2029 150.417 41.1257 150.534 41.0241C150.652 40.9204 150.745 40.7926 150.814 40.6403C150.885 40.4882 150.925 40.3118 150.934 40.1111H149.297V39.3633H151.837V41.9837H151V41.355Z" fill="#1E164B"/>
<path d="M158.626 41.9836H157.75L157.399 40.9513H155.461L155.11 41.9836H154.234L155.879 37.2192H156.985L158.626 41.9836ZM157.147 40.207L156.43 38.0928L155.713 40.207H157.147Z" fill="#1E164B"/>
<path d="M161.362 41.9836V37.2192H162.196L164.508 40.6072V37.2192H165.346V41.9836H164.508L162.196 38.5957V41.9836H161.362Z" fill="#1E164B"/>
<path d="M53.0457 50.0341V45.2698H53.8797L55.4824 48.4757L57.0852 45.2698H57.9192V50.0341H57.0852V46.8711L55.834 49.379H55.1308L53.8832 46.8711V50.0341H53.0457Z" fill="#1E164B"/>
<path d="M65.0447 50.0341H64.1693L63.8177 49.0018H61.8808L61.5292 50.0341H60.6536L62.2977 45.2698H63.4041L65.0447 50.0341ZM63.5661 48.2575L62.8491 46.1432L62.1324 48.2575H63.5661Z" fill="#1E164B"/>
<path d="M67.781 45.2698H68.6186V47.4865L70.6004 45.2698H71.6205L69.4871 47.6056L71.7652 50.0341H70.7106L68.6186 47.8074V50.0341H67.781V45.2698Z" fill="#1E164B"/>
<path d="M75.4527 50.0341V46.0175H73.9741V45.2698H77.7621V46.0175H76.2903V50.0341H75.4527Z" fill="#1E164B"/>
<path d="M84.3404 50.0341H83.465L83.1133 49.0018H81.1765L80.8248 50.0341H79.9492L81.5934 45.2698H82.6998L84.3404 50.0341ZM82.8617 48.2575L82.1448 46.1432L81.4281 48.2575H82.8617Z" fill="#1E164B"/>
<path d="M88.9894 50.0341H87.0764V45.2698H88.9379C89.1675 45.2698 89.3824 45.2962 89.5822 45.3491C89.7845 45.3999 89.9591 45.4771 90.1062 45.5808C90.2556 45.6845 90.3727 45.8146 90.4578 45.9712C90.5428 46.1278 90.5853 46.3108 90.5853 46.5203C90.5853 46.6748 90.5634 46.8115 90.5198 46.9306C90.4762 47.0475 90.4198 47.149 90.351 47.235C90.2819 47.3212 90.2049 47.3905 90.1199 47.4434C90.035 47.4963 89.9522 47.5349 89.8719 47.5593C89.9706 47.577 90.0717 47.6132 90.1751 47.6685C90.2786 47.7235 90.3727 47.7997 90.4578 47.8968C90.5428 47.9917 90.6116 48.1063 90.6645 48.2409C90.7196 48.3755 90.7473 48.531 90.7473 48.7074C90.7473 48.9389 90.7013 49.1386 90.6094 49.3062C90.5176 49.4739 90.391 49.6117 90.2304 49.7197C90.0717 49.8278 89.8856 49.9072 89.6718 49.958C89.4583 50.0088 89.2308 50.0341 88.9894 50.0341ZM88.9549 46.0175H87.9107V47.212H88.9894C89.0952 47.212 89.1939 47.2019 89.2859 47.1821C89.3778 47.1623 89.457 47.1292 89.5236 47.0829C89.5926 47.0342 89.6466 46.9715 89.6858 46.8943C89.7247 46.8171 89.7442 46.7221 89.7442 46.6097C89.7442 46.4973 89.7236 46.4034 89.6822 46.3285C89.6431 46.2513 89.588 46.1897 89.5167 46.1432C89.4479 46.0969 89.3652 46.0649 89.2687 46.0474C89.1722 46.0275 89.0675 46.0175 88.9549 46.0175ZM88.9894 49.2864C89.1113 49.2864 89.2273 49.2775 89.3375 49.26C89.4479 49.2423 89.5455 49.2092 89.6305 49.1605C89.7179 49.11 89.7867 49.0415 89.8374 48.9555C89.8878 48.8672 89.9133 48.7537 89.9133 48.6146C89.9133 48.4779 89.8878 48.3665 89.8374 48.2805C89.7867 48.1946 89.719 48.1274 89.634 48.0787C89.5513 48.028 89.4559 47.9938 89.3479 47.9761C89.2399 47.9563 89.1297 47.9465 89.0171 47.9465H87.9107V49.2864H88.9894Z" fill="#1E164B"/>
<path d="M93.6448 50.0341V45.2698H94.4823V50.0341H93.6448Z" fill="#1E164B"/>
<path d="M64.481 31.8709H61.3893V25.6759H55.5834V31.8709H52.4915V16.5557H55.5834V23.0301H61.3893V16.5557H64.481V31.8709Z" fill="#1E164B"/>
<path d="M79.9538 31.8709H76.7284L75.8386 29.2251H70.5223L69.6546 31.8709H66.4292L71.501 17.8463C71.7234 17.3586 71.9681 17.0218 72.235 16.8353C72.5167 16.6489 72.8579 16.5557 73.2582 16.5557C73.6587 16.5557 73.9774 16.6416 74.2148 16.8138C74.4669 16.986 74.6893 17.3301 74.882 17.8463L79.9538 31.8709ZM75.1267 26.7084L73.2582 20.6425L71.3008 26.7084H75.1267Z" fill="#1E164B"/>
<path d="M93.8273 22.7291L90.98 28.5369C90.5649 29.3111 90.0457 29.6983 89.4228 29.6983C88.815 29.6983 88.3034 29.2897 87.888 28.4722L84.9963 22.7291V31.8709H81.9043V16.5557H84.9518L89.4228 25.3964L93.8717 16.5557H96.9193V31.8709H93.8273V22.7291Z" fill="#1E164B"/>
<path d="M112.146 31.8709H108.565L105.473 26.1921H103.249V31.8709H100.157V19.8468C100.157 18.6995 100.431 17.8679 100.98 17.3516C101.528 16.821 102.448 16.5557 103.738 16.5557H106.363C107.935 16.5557 109.18 17.0218 110.1 17.9538C111.034 18.8716 111.501 20.0402 111.501 21.46C111.501 22.4925 111.22 23.3887 110.656 24.1488C110.107 24.8944 109.425 25.4107 108.61 25.6974L112.146 31.8709ZM106.163 23.697C106.815 23.697 107.349 23.482 107.764 23.0517C108.194 22.6071 108.409 22.0622 108.409 21.4169C108.409 20.7573 108.202 20.2267 107.787 19.8252C107.386 19.4237 106.845 19.223 106.163 19.223H104.628C103.708 19.223 103.249 19.6746 103.249 20.5781V23.697H106.163Z" fill="#1E164B"/>
<path d="M126.723 31.8709H123.498L122.608 29.2251H117.292L116.424 31.8709H113.199L118.27 17.8463C118.493 17.3586 118.737 17.0218 119.005 16.8353C119.286 16.6489 119.627 16.5557 120.028 16.5557C120.428 16.5557 120.747 16.6416 120.984 16.8138C121.236 16.986 121.459 17.3301 121.652 17.8463L126.723 31.8709ZM121.896 26.7084L120.028 20.6425L118.07 26.7084H121.896Z" fill="#1E164B"/>
<path d="M136.037 23.7616L141.487 31.8709H137.883L134.146 26.0846L131.988 28.881V31.8709H128.896V16.5557H131.988V25.1167L137.972 16.5557H141.086L136.037 23.7616Z" fill="#1E164B"/>
<path d="M155.324 16.5557V26.6224C155.324 28.2858 154.738 29.598 153.566 30.5587C152.409 31.5195 150.978 31.9999 149.273 31.9999C147.568 31.9999 146.129 31.5195 144.958 30.5587C143.801 29.598 143.223 28.2858 143.223 26.6224V16.5557H146.314V26.5149C146.314 27.4613 146.582 28.171 147.115 28.6444C147.664 29.1033 148.383 29.3326 149.273 29.3326C150.163 29.3326 150.882 29.1033 151.431 28.6444C151.979 28.171 152.254 27.4613 152.254 26.5149V16.5557H155.324Z" fill="#1E164B"/>
<path d="M168.313 31.8709H163.597C161.818 31.8709 160.528 31.5411 159.727 30.8814C158.941 30.2075 158.548 29.1176 158.548 27.6119V16.5557H161.64V27.6119C161.64 28.2141 161.781 28.6301 162.062 28.8594C162.344 29.089 162.856 29.2036 163.597 29.2036H168.313V31.8709Z" fill="#1E164B"/>
<path d="M182.389 23.5037V24.6651C182.389 27.2321 181.885 29.0962 180.877 30.2578C179.883 31.4194 178.282 32.0001 176.072 32.0001C173.862 32.0001 172.261 31.4194 171.267 30.2578C170.288 29.0962 169.799 27.2105 169.799 24.6006V23.4821C169.799 21.1015 170.296 19.3306 171.289 18.169C172.298 17.0074 173.885 16.4268 176.05 16.4268C178.23 16.4268 179.831 17.0147 180.854 18.1906C181.878 19.3665 182.389 21.1374 182.389 23.5037ZM179.297 24.6006V23.8047C179.297 22.428 179.119 21.3311 178.763 20.5136C178.348 19.5672 177.459 19.0941 176.094 19.0941C174.715 19.0941 173.818 19.5672 173.403 20.5136C173.061 21.288 172.891 22.3852 172.891 23.8047V24.6006C172.891 26.4504 173.158 27.698 173.692 28.3433C173.899 28.6158 174.203 28.8524 174.604 29.0531C175.019 29.2396 175.508 29.3328 176.072 29.3328C176.65 29.3328 177.14 29.2396 177.54 29.0531C177.941 28.8669 178.252 28.6373 178.474 28.3649C178.697 28.0925 178.867 27.7339 178.986 27.2895C179.194 26.5868 179.297 25.6905 179.297 24.6006Z" fill="#1E164B"/>
<path d="M196.104 16.5557L191.122 31.0105C190.855 31.6701 190.38 31.9999 189.698 31.9999C188.986 31.9999 188.497 31.6701 188.23 31.0105L183.314 16.5557H186.517L189.698 26.5365L192.879 16.5557H196.104Z" fill="#1E164B"/>
<path fill-rule="evenodd" clip-rule="evenodd" d="M42.9014 16.3445H9.56262V49.5468L26.2319 57.582L42.9014 49.5468V16.3445ZM21.9857 21.3476H14.7519V45.7565L21.9857 41.9662V37.4182L19.7841 35.4472H21.9857H25.9174H26.3888H30.3203H32.5221L30.3203 37.4182V41.9664L37.5543 45.7565V21.3476H30.3203V28.4731H26.3888H25.9174H21.9857V21.3476Z" fill="#296DFB"/>
<path d="M26.3894 45.3015L27.2719 47.9206H30.1284L27.8176 49.5392L28.7003 52.1581L26.3894 50.5395L24.0786 52.1581L24.9613 49.5392L22.6504 47.9206H25.5067L26.3894 45.3015Z" fill="#E1A228"/>
<path d="M32.7581 8.49733C30.871 6.31408 27.621 6.07152 26.2318 6.2232V12.5148C26.625 11.858 28.1977 10.7563 31.3428 11.6052C34.4879 12.4542 37.371 11.5546 38.4194 10.9989C37.3185 11.0746 34.6452 10.6804 32.7581 8.49733Z" fill="#1E164B"/>
</g>
</g>
<defs>
<clipPath id="clip0_20_165">
<rect width="202" height="64" fill="white"/>
</clipPath>
</defs>
</svg>
