<svg width="14" height="11" viewBox="0 0 14 11" fill="none" xmlns="http://www.w3.org/2000/svg">
<path d="M11.3962 1.76421C11.7916 1.62074 11.9879 1.56911 12.0966 1.55064C12.0974 1.58541 12.0966 1.61359 12.0948 1.63209C11.9397 3.26137 11.2604 7.26979 10.9115 9.13499C10.8298 9.57179 10.7671 9.77972 10.3453 9.53192C10.0676 9.36872 9.81633 9.16338 9.54713 8.98692C8.66406 8.40798 7.4 7.54585 7.5038 7.59772C6.63441 7.02479 6.99833 6.67399 7.48366 6.20612C7.56226 6.13039 7.644 6.05159 7.7242 5.96825C7.76 5.93105 7.93513 5.76819 8.18206 5.53865C8.97413 4.80225 10.5047 3.37927 10.5434 3.2146C10.5497 3.18759 10.5556 3.08689 10.4957 3.03371C10.4359 2.98053 10.3477 2.99872 10.2839 3.01318C10.1936 3.03368 8.75506 3.98452 5.96828 5.86565C5.55996 6.14605 5.19011 6.28272 4.85874 6.27552L4.8617 6.27699C4.4252 6.12305 3.98993 5.99052 3.55236 5.85725C3.2649 5.76965 2.97646 5.68179 2.68602 5.58739C2.61499 5.56432 2.54568 5.54239 2.48055 5.52192C5.49854 4.20719 7.50866 3.34154 8.51593 2.92259C9.97893 2.31408 10.8467 1.96359 11.3962 1.76421ZM13.0113 0.478626C12.8423 0.341546 12.6567 0.278632 12.5277 0.247819C12.3945 0.215999 12.2679 0.205759 12.1719 0.207452C11.8543 0.213046 11.5131 0.303372 10.9414 0.510832C10.3582 0.722466 9.462 1.08501 8.00386 1.69149C6.97586 2.11908 4.92925 3.00069 1.8691 4.33392C1.6003 4.44139 1.3539 4.56332 1.15922 4.70785C0.979458 4.84139 0.727818 5.08025 0.681785 5.44752C0.647011 5.72485 0.727878 5.98085 0.891878 6.18245C1.03465 6.35792 1.21756 6.46452 1.35686 6.53199C1.56363 6.63212 1.84184 6.71932 2.08634 6.79599C2.46842 6.91572 2.84962 7.03805 3.23252 7.15525C4.41794 7.51812 5.39377 7.81679 6.46746 8.52432C7.255 9.04332 8.02733 9.58492 8.8162 10.102C9.10393 10.2906 9.37286 10.5071 9.66993 10.6815C9.9944 10.8722 10.4069 11.0461 10.9091 10.9998C11.6679 10.93 12.0627 10.2319 12.2221 9.38012C12.5701 7.51965 13.2606 3.45559 13.4221 1.75841C13.4432 1.53688 13.4185 1.28859 13.398 1.16871C13.3769 1.04525 13.3123 0.722906 13.0113 0.478626Z" fill="#F50739"/>
</svg>
