<svg width="14" height="12" viewBox="0 0 14 12" fill="none" xmlns="http://www.w3.org/2000/svg">
<path d="M12.0713 2.66329C12.0205 2.46471 11.8768 2.31489 11.7123 2.26867C11.4199 2.18716 10.0007 2.00008 7.00067 2.00008C4.00065 2.00008 2.58168 2.18723 2.28816 2.2689C2.12517 2.31423 1.98153 2.46403 1.93006 2.66329C1.85753 2.94623 1.66732 4.13071 1.66732 6.00008C1.66732 7.86941 1.85753 9.05395 1.93026 9.33768C1.98084 9.53548 2.1245 9.68528 2.28834 9.73128C2.58168 9.81295 4.00065 10.0001 7.00067 10.0001C10.0007 10.0001 11.4199 9.81301 11.7131 9.73128C11.8761 9.68595 12.0198 9.53615 12.0713 9.33688C12.1438 9.05395 12.334 7.86675 12.334 6.00008C12.334 4.13341 12.1438 2.94623 12.0713 2.66329ZM13.3628 2.3322C13.6673 3.52008 13.6673 6.00008 13.6673 6.00008C13.6673 6.00008 13.6673 8.48008 13.3628 9.66795C13.1931 10.3249 12.698 10.8413 12.0704 11.0158C10.9314 11.3334 7.00067 11.3334 7.00067 11.3334C7.00067 11.3334 3.07224 11.3334 1.93091 11.0158C1.30097 10.8389 0.805858 10.3225 0.638491 9.66795C0.333984 8.48008 0.333984 6.00008 0.333984 6.00008C0.333984 6.00008 0.333984 3.52008 0.638491 2.3322C0.808178 1.67523 1.3033 1.15887 1.93091 0.984321C3.07224 0.666748 7.00067 0.666748 7.00067 0.666748C7.00067 0.666748 10.9314 0.666748 12.0704 0.984321C12.7003 1.16129 13.1955 1.67765 13.3628 2.3322ZM5.66733 8.33342V3.66675L9.66733 6.00008L5.66733 8.33342Z" fill="#F50739"/>
</svg>
